<?xml version="1.0" encoding="utf-8" standalone="no"?>
<!DOCTYPE svg PUBLIC "-//W3C//DTD SVG 1.1//EN"
  "http://www.w3.org/Graphics/SVG/1.1/DTD/svg11.dtd">
<svg xmlns:xlink="http://www.w3.org/1999/xlink" width="460.8pt" height="345.6pt" viewBox="0 0 460.8 345.6" xmlns="http://www.w3.org/2000/svg" version="1.1">
 <metadata>
  <rdf:RDF xmlns:dc="http://purl.org/dc/elements/1.1/" xmlns:cc="http://creativecommons.org/ns#" xmlns:rdf="http://www.w3.org/1999/02/22-rdf-syntax-ns#">
   <cc:Work>
    <dc:type rdf:resource="http://purl.org/dc/dcmitype/StillImage"/>
    <dc:date>2024-04-30T09:42:30.653019</dc:date>
    <dc:format>image/svg+xml</dc:format>
    <dc:creator>
     <cc:Agent>
      <dc:title>Matplotlib v3.5.3, https://matplotlib.org/</dc:title>
     </cc:Agent>
    </dc:creator>
   </cc:Work>
  </rdf:RDF>
 </metadata>
 <defs>
  <style type="text/css">*{stroke-linejoin: round; stroke-linecap: butt}</style>
 </defs>
 <g id="figure_1">
  <g id="patch_1">
   <path d="M 0 345.6 
L 460.8 345.6 
L 460.8 0 
L 0 0 
z
" style="fill: #bfbfbf"/>
  </g>
  <g id="axes_1">
   <g id="patch_2">
    <path d="M 57.6 307.584 
L 414.72 307.584 
L 414.72 41.472 
L 57.6 41.472 
z
" style="fill: #d3d3d3"/>
   </g>
   <g id="matplotlib.axis_1">
    <g id="xtick_1">
     <g id="line2d_1">
      <path d="M 73.832727 307.584 
L 73.832727 41.472 
" clip-path="url(#p4bcdc008c2)" style="fill: none; stroke: #b0b0b0; stroke-width: 0.8; stroke-linecap: square"/>
     </g>
     <g id="line2d_2">
      <defs>
       <path id="meb28e9c1b0" d="M 0 0 
L 0 3.5 
" style="stroke: #000000; stroke-width: 0.8"/>
      </defs>
      <g>
       <use xlink:href="#meb28e9c1b0" x="73.832727" y="307.584" style="stroke: #000000; stroke-width: 0.8"/>
      </g>
     </g>
     <g id="text_1">
      <!-- 0 -->
      <g transform="translate(70.015227 323.702125)scale(0.12 -0.12)">
       <defs>
        <path id="DejaVuSans-30" d="M 2034 4250 
Q 1547 4250 1301 3770 
Q 1056 3291 1056 2328 
Q 1056 1369 1301 889 
Q 1547 409 2034 409 
Q 2525 409 2770 889 
Q 3016 1369 3016 2328 
Q 3016 3291 2770 3770 
Q 2525 4250 2034 4250 
z
M 2034 4750 
Q 2819 4750 3233 4129 
Q 3647 3509 3647 2328 
Q 3647 1150 3233 529 
Q 2819 -91 2034 -91 
Q 1250 -91 836 529 
Q 422 1150 422 2328 
Q 422 3509 836 4129 
Q 1250 4750 2034 4750 
z
" transform="scale(0.015625)"/>
       </defs>
       <use xlink:href="#DejaVuSans-30"/>
      </g>
     </g>
    </g>
    <g id="xtick_2">
     <g id="line2d_3">
      <path d="M 138.763636 307.584 
L 138.763636 41.472 
" clip-path="url(#p4bcdc008c2)" style="fill: none; stroke: #b0b0b0; stroke-width: 0.8; stroke-linecap: square"/>
     </g>
     <g id="line2d_4">
      <g>
       <use xlink:href="#meb28e9c1b0" x="138.763636" y="307.584" style="stroke: #000000; stroke-width: 0.8"/>
      </g>
     </g>
     <g id="text_2">
      <!-- 20 -->
      <g transform="translate(131.128636 323.702125)scale(0.12 -0.12)">
       <defs>
        <path id="DejaVuSans-32" d="M 1228 531 
L 3431 531 
L 3431 0 
L 469 0 
L 469 531 
Q 828 903 1448 1529 
Q 2069 2156 2228 2338 
Q 2531 2678 2651 2914 
Q 2772 3150 2772 3378 
Q 2772 3750 2511 3984 
Q 2250 4219 1831 4219 
Q 1534 4219 1204 4116 
Q 875 4013 500 3803 
L 500 4441 
Q 881 4594 1212 4672 
Q 1544 4750 1819 4750 
Q 2544 4750 2975 4387 
Q 3406 4025 3406 3419 
Q 3406 3131 3298 2873 
Q 3191 2616 2906 2266 
Q 2828 2175 2409 1742 
Q 1991 1309 1228 531 
z
" transform="scale(0.015625)"/>
       </defs>
       <use xlink:href="#DejaVuSans-32"/>
       <use xlink:href="#DejaVuSans-30" x="63.623047"/>
      </g>
     </g>
    </g>
    <g id="xtick_3">
     <g id="line2d_5">
      <path d="M 203.694545 307.584 
L 203.694545 41.472 
" clip-path="url(#p4bcdc008c2)" style="fill: none; stroke: #b0b0b0; stroke-width: 0.8; stroke-linecap: square"/>
     </g>
     <g id="line2d_6">
      <g>
       <use xlink:href="#meb28e9c1b0" x="203.694545" y="307.584" style="stroke: #000000; stroke-width: 0.8"/>
      </g>
     </g>
     <g id="text_3">
      <!-- 40 -->
      <g transform="translate(196.059545 323.702125)scale(0.12 -0.12)">
       <defs>
        <path id="DejaVuSans-34" d="M 2419 4116 
L 825 1625 
L 2419 1625 
L 2419 4116 
z
M 2253 4666 
L 3047 4666 
L 3047 1625 
L 3713 1625 
L 3713 1100 
L 3047 1100 
L 3047 0 
L 2419 0 
L 2419 1100 
L 313 1100 
L 313 1709 
L 2253 4666 
z
" transform="scale(0.015625)"/>
       </defs>
       <use xlink:href="#DejaVuSans-34"/>
       <use xlink:href="#DejaVuSans-30" x="63.623047"/>
      </g>
     </g>
    </g>
    <g id="xtick_4">
     <g id="line2d_7">
      <path d="M 268.625455 307.584 
L 268.625455 41.472 
" clip-path="url(#p4bcdc008c2)" style="fill: none; stroke: #b0b0b0; stroke-width: 0.8; stroke-linecap: square"/>
     </g>
     <g id="line2d_8">
      <g>
       <use xlink:href="#meb28e9c1b0" x="268.625455" y="307.584" style="stroke: #000000; stroke-width: 0.8"/>
      </g>
     </g>
     <g id="text_4">
      <!-- 60 -->
      <g transform="translate(260.990455 323.702125)scale(0.12 -0.12)">
       <defs>
        <path id="DejaVuSans-36" d="M 2113 2584 
Q 1688 2584 1439 2293 
Q 1191 2003 1191 1497 
Q 1191 994 1439 701 
Q 1688 409 2113 409 
Q 2538 409 2786 701 
Q 3034 994 3034 1497 
Q 3034 2003 2786 2293 
Q 2538 2584 2113 2584 
z
M 3366 4563 
L 3366 3988 
Q 3128 4100 2886 4159 
Q 2644 4219 2406 4219 
Q 1781 4219 1451 3797 
Q 1122 3375 1075 2522 
Q 1259 2794 1537 2939 
Q 1816 3084 2150 3084 
Q 2853 3084 3261 2657 
Q 3669 2231 3669 1497 
Q 3669 778 3244 343 
Q 2819 -91 2113 -91 
Q 1303 -91 875 529 
Q 447 1150 447 2328 
Q 447 3434 972 4092 
Q 1497 4750 2381 4750 
Q 2619 4750 2861 4703 
Q 3103 4656 3366 4563 
z
" transform="scale(0.015625)"/>
       </defs>
       <use xlink:href="#DejaVuSans-36"/>
       <use xlink:href="#DejaVuSans-30" x="63.623047"/>
      </g>
     </g>
    </g>
    <g id="xtick_5">
     <g id="line2d_9">
      <path d="M 333.556364 307.584 
L 333.556364 41.472 
" clip-path="url(#p4bcdc008c2)" style="fill: none; stroke: #b0b0b0; stroke-width: 0.8; stroke-linecap: square"/>
     </g>
     <g id="line2d_10">
      <g>
       <use xlink:href="#meb28e9c1b0" x="333.556364" y="307.584" style="stroke: #000000; stroke-width: 0.8"/>
      </g>
     </g>
     <g id="text_5">
      <!-- 80 -->
      <g transform="translate(325.921364 323.702125)scale(0.12 -0.12)">
       <defs>
        <path id="DejaVuSans-38" d="M 2034 2216 
Q 1584 2216 1326 1975 
Q 1069 1734 1069 1313 
Q 1069 891 1326 650 
Q 1584 409 2034 409 
Q 2484 409 2743 651 
Q 3003 894 3003 1313 
Q 3003 1734 2745 1975 
Q 2488 2216 2034 2216 
z
M 1403 2484 
Q 997 2584 770 2862 
Q 544 3141 544 3541 
Q 544 4100 942 4425 
Q 1341 4750 2034 4750 
Q 2731 4750 3128 4425 
Q 3525 4100 3525 3541 
Q 3525 3141 3298 2862 
Q 3072 2584 2669 2484 
Q 3125 2378 3379 2068 
Q 3634 1759 3634 1313 
Q 3634 634 3220 271 
Q 2806 -91 2034 -91 
Q 1263 -91 848 271 
Q 434 634 434 1313 
Q 434 1759 690 2068 
Q 947 2378 1403 2484 
z
M 1172 3481 
Q 1172 3119 1398 2916 
Q 1625 2713 2034 2713 
Q 2441 2713 2670 2916 
Q 2900 3119 2900 3481 
Q 2900 3844 2670 4047 
Q 2441 4250 2034 4250 
Q 1625 4250 1398 4047 
Q 1172 3844 1172 3481 
z
" transform="scale(0.015625)"/>
       </defs>
       <use xlink:href="#DejaVuSans-38"/>
       <use xlink:href="#DejaVuSans-30" x="63.623047"/>
      </g>
     </g>
    </g>
    <g id="xtick_6">
     <g id="line2d_11">
      <path d="M 398.487273 307.584 
L 398.487273 41.472 
" clip-path="url(#p4bcdc008c2)" style="fill: none; stroke: #b0b0b0; stroke-width: 0.8; stroke-linecap: square"/>
     </g>
     <g id="line2d_12">
      <g>
       <use xlink:href="#meb28e9c1b0" x="398.487273" y="307.584" style="stroke: #000000; stroke-width: 0.8"/>
      </g>
     </g>
     <g id="text_6">
      <!-- 100 -->
      <g transform="translate(387.034773 323.702125)scale(0.12 -0.12)">
       <defs>
        <path id="DejaVuSans-31" d="M 794 531 
L 1825 531 
L 1825 4091 
L 703 3866 
L 703 4441 
L 1819 4666 
L 2450 4666 
L 2450 531 
L 3481 531 
L 3481 0 
L 794 0 
L 794 531 
z
" transform="scale(0.015625)"/>
       </defs>
       <use xlink:href="#DejaVuSans-31"/>
       <use xlink:href="#DejaVuSans-30" x="63.623047"/>
       <use xlink:href="#DejaVuSans-30" x="127.246094"/>
      </g>
     </g>
    </g>
    <g id="text_7">
     <!-- quantile index -->
     <g transform="translate(193.367813 339.315875)scale(0.12 -0.12)">
      <defs>
       <path id="DejaVuSans-71" d="M 947 1747 
Q 947 1113 1208 752 
Q 1469 391 1925 391 
Q 2381 391 2643 752 
Q 2906 1113 2906 1747 
Q 2906 2381 2643 2742 
Q 2381 3103 1925 3103 
Q 1469 3103 1208 2742 
Q 947 2381 947 1747 
z
M 2906 525 
Q 2725 213 2448 61 
Q 2172 -91 1784 -91 
Q 1150 -91 751 415 
Q 353 922 353 1747 
Q 353 2572 751 3078 
Q 1150 3584 1784 3584 
Q 2172 3584 2448 3432 
Q 2725 3281 2906 2969 
L 2906 3500 
L 3481 3500 
L 3481 -1331 
L 2906 -1331 
L 2906 525 
z
" transform="scale(0.015625)"/>
       <path id="DejaVuSans-75" d="M 544 1381 
L 544 3500 
L 1119 3500 
L 1119 1403 
Q 1119 906 1312 657 
Q 1506 409 1894 409 
Q 2359 409 2629 706 
Q 2900 1003 2900 1516 
L 2900 3500 
L 3475 3500 
L 3475 0 
L 2900 0 
L 2900 538 
Q 2691 219 2414 64 
Q 2138 -91 1772 -91 
Q 1169 -91 856 284 
Q 544 659 544 1381 
z
M 1991 3584 
L 1991 3584 
z
" transform="scale(0.015625)"/>
       <path id="DejaVuSans-61" d="M 2194 1759 
Q 1497 1759 1228 1600 
Q 959 1441 959 1056 
Q 959 750 1161 570 
Q 1363 391 1709 391 
Q 2188 391 2477 730 
Q 2766 1069 2766 1631 
L 2766 1759 
L 2194 1759 
z
M 3341 1997 
L 3341 0 
L 2766 0 
L 2766 531 
Q 2569 213 2275 61 
Q 1981 -91 1556 -91 
Q 1019 -91 701 211 
Q 384 513 384 1019 
Q 384 1609 779 1909 
Q 1175 2209 1959 2209 
L 2766 2209 
L 2766 2266 
Q 2766 2663 2505 2880 
Q 2244 3097 1772 3097 
Q 1472 3097 1187 3025 
Q 903 2953 641 2809 
L 641 3341 
Q 956 3463 1253 3523 
Q 1550 3584 1831 3584 
Q 2591 3584 2966 3190 
Q 3341 2797 3341 1997 
z
" transform="scale(0.015625)"/>
       <path id="DejaVuSans-6e" d="M 3513 2113 
L 3513 0 
L 2938 0 
L 2938 2094 
Q 2938 2591 2744 2837 
Q 2550 3084 2163 3084 
Q 1697 3084 1428 2787 
Q 1159 2491 1159 1978 
L 1159 0 
L 581 0 
L 581 3500 
L 1159 3500 
L 1159 2956 
Q 1366 3272 1645 3428 
Q 1925 3584 2291 3584 
Q 2894 3584 3203 3211 
Q 3513 2838 3513 2113 
z
" transform="scale(0.015625)"/>
       <path id="DejaVuSans-74" d="M 1172 4494 
L 1172 3500 
L 2356 3500 
L 2356 3053 
L 1172 3053 
L 1172 1153 
Q 1172 725 1289 603 
Q 1406 481 1766 481 
L 2356 481 
L 2356 0 
L 1766 0 
Q 1100 0 847 248 
Q 594 497 594 1153 
L 594 3053 
L 172 3053 
L 172 3500 
L 594 3500 
L 594 4494 
L 1172 4494 
z
" transform="scale(0.015625)"/>
       <path id="DejaVuSans-69" d="M 603 3500 
L 1178 3500 
L 1178 0 
L 603 0 
L 603 3500 
z
M 603 4863 
L 1178 4863 
L 1178 4134 
L 603 4134 
L 603 4863 
z
" transform="scale(0.015625)"/>
       <path id="DejaVuSans-6c" d="M 603 4863 
L 1178 4863 
L 1178 0 
L 603 0 
L 603 4863 
z
" transform="scale(0.015625)"/>
       <path id="DejaVuSans-65" d="M 3597 1894 
L 3597 1613 
L 953 1613 
Q 991 1019 1311 708 
Q 1631 397 2203 397 
Q 2534 397 2845 478 
Q 3156 559 3463 722 
L 3463 178 
Q 3153 47 2828 -22 
Q 2503 -91 2169 -91 
Q 1331 -91 842 396 
Q 353 884 353 1716 
Q 353 2575 817 3079 
Q 1281 3584 2069 3584 
Q 2775 3584 3186 3129 
Q 3597 2675 3597 1894 
z
M 3022 2063 
Q 3016 2534 2758 2815 
Q 2500 3097 2075 3097 
Q 1594 3097 1305 2825 
Q 1016 2553 972 2059 
L 3022 2063 
z
" transform="scale(0.015625)"/>
       <path id="DejaVuSans-20" transform="scale(0.015625)"/>
       <path id="DejaVuSans-64" d="M 2906 2969 
L 2906 4863 
L 3481 4863 
L 3481 0 
L 2906 0 
L 2906 525 
Q 2725 213 2448 61 
Q 2172 -91 1784 -91 
Q 1150 -91 751 415 
Q 353 922 353 1747 
Q 353 2572 751 3078 
Q 1150 3584 1784 3584 
Q 2172 3584 2448 3432 
Q 2725 3281 2906 2969 
z
M 947 1747 
Q 947 1113 1208 752 
Q 1469 391 1925 391 
Q 2381 391 2643 752 
Q 2906 1113 2906 1747 
Q 2906 2381 2643 2742 
Q 2381 3103 1925 3103 
Q 1469 3103 1208 2742 
Q 947 2381 947 1747 
z
" transform="scale(0.015625)"/>
       <path id="DejaVuSans-78" d="M 3513 3500 
L 2247 1797 
L 3578 0 
L 2900 0 
L 1881 1375 
L 863 0 
L 184 0 
L 1544 1831 
L 300 3500 
L 978 3500 
L 1906 2253 
L 2834 3500 
L 3513 3500 
z
" transform="scale(0.015625)"/>
      </defs>
      <use xlink:href="#DejaVuSans-71"/>
      <use xlink:href="#DejaVuSans-75" x="63.476562"/>
      <use xlink:href="#DejaVuSans-61" x="126.855469"/>
      <use xlink:href="#DejaVuSans-6e" x="188.134766"/>
      <use xlink:href="#DejaVuSans-74" x="251.513672"/>
      <use xlink:href="#DejaVuSans-69" x="290.722656"/>
      <use xlink:href="#DejaVuSans-6c" x="318.505859"/>
      <use xlink:href="#DejaVuSans-65" x="346.289062"/>
      <use xlink:href="#DejaVuSans-20" x="407.8125"/>
      <use xlink:href="#DejaVuSans-69" x="439.599609"/>
      <use xlink:href="#DejaVuSans-6e" x="467.382812"/>
      <use xlink:href="#DejaVuSans-64" x="530.761719"/>
      <use xlink:href="#DejaVuSans-65" x="594.238281"/>
      <use xlink:href="#DejaVuSans-78" x="654.011719"/>
     </g>
    </g>
   </g>
   <g id="matplotlib.axis_2">
    <g id="ytick_1">
     <g id="line2d_13">
      <path d="M 57.6 286.582969 
L 414.72 286.582969 
" clip-path="url(#p4bcdc008c2)" style="fill: none; stroke: #b0b0b0; stroke-width: 0.8; stroke-linecap: square"/>
     </g>
     <g id="line2d_14">
      <defs>
       <path id="mbdc00d35d2" d="M 0 0 
L -3.5 0 
" style="stroke: #000000; stroke-width: 0.8"/>
      </defs>
      <g>
       <use xlink:href="#mbdc00d35d2" x="57.6" y="286.582969" style="stroke: #000000; stroke-width: 0.8"/>
      </g>
     </g>
     <g id="text_8">
      <!-- 20 -->
      <g transform="translate(35.33 291.142032)scale(0.12 -0.12)">
       <use xlink:href="#DejaVuSans-32"/>
       <use xlink:href="#DejaVuSans-30" x="63.623047"/>
      </g>
     </g>
    </g>
    <g id="ytick_2">
     <g id="line2d_15">
      <path d="M 57.6 237.110577 
L 414.72 237.110577 
" clip-path="url(#p4bcdc008c2)" style="fill: none; stroke: #b0b0b0; stroke-width: 0.8; stroke-linecap: square"/>
     </g>
     <g id="line2d_16">
      <g>
       <use xlink:href="#mbdc00d35d2" x="57.6" y="237.110577" style="stroke: #000000; stroke-width: 0.8"/>
      </g>
     </g>
     <g id="text_9">
      <!-- 30 -->
      <g transform="translate(35.33 241.669639)scale(0.12 -0.12)">
       <defs>
        <path id="DejaVuSans-33" d="M 2597 2516 
Q 3050 2419 3304 2112 
Q 3559 1806 3559 1356 
Q 3559 666 3084 287 
Q 2609 -91 1734 -91 
Q 1441 -91 1130 -33 
Q 819 25 488 141 
L 488 750 
Q 750 597 1062 519 
Q 1375 441 1716 441 
Q 2309 441 2620 675 
Q 2931 909 2931 1356 
Q 2931 1769 2642 2001 
Q 2353 2234 1838 2234 
L 1294 2234 
L 1294 2753 
L 1863 2753 
Q 2328 2753 2575 2939 
Q 2822 3125 2822 3475 
Q 2822 3834 2567 4026 
Q 2313 4219 1838 4219 
Q 1578 4219 1281 4162 
Q 984 4106 628 3988 
L 628 4550 
Q 988 4650 1302 4700 
Q 1616 4750 1894 4750 
Q 2613 4750 3031 4423 
Q 3450 4097 3450 3541 
Q 3450 3153 3228 2886 
Q 3006 2619 2597 2516 
z
" transform="scale(0.015625)"/>
       </defs>
       <use xlink:href="#DejaVuSans-33"/>
       <use xlink:href="#DejaVuSans-30" x="63.623047"/>
      </g>
     </g>
    </g>
    <g id="ytick_3">
     <g id="line2d_17">
      <path d="M 57.6 187.638184 
L 414.72 187.638184 
" clip-path="url(#p4bcdc008c2)" style="fill: none; stroke: #b0b0b0; stroke-width: 0.8; stroke-linecap: square"/>
     </g>
     <g id="line2d_18">
      <g>
       <use xlink:href="#mbdc00d35d2" x="57.6" y="187.638184" style="stroke: #000000; stroke-width: 0.8"/>
      </g>
     </g>
     <g id="text_10">
      <!-- 40 -->
      <g transform="translate(35.33 192.197247)scale(0.12 -0.12)">
       <use xlink:href="#DejaVuSans-34"/>
       <use xlink:href="#DejaVuSans-30" x="63.623047"/>
      </g>
     </g>
    </g>
    <g id="ytick_4">
     <g id="line2d_19">
      <path d="M 57.6 138.165791 
L 414.72 138.165791 
" clip-path="url(#p4bcdc008c2)" style="fill: none; stroke: #b0b0b0; stroke-width: 0.8; stroke-linecap: square"/>
     </g>
     <g id="line2d_20">
      <g>
       <use xlink:href="#mbdc00d35d2" x="57.6" y="138.165791" style="stroke: #000000; stroke-width: 0.8"/>
      </g>
     </g>
     <g id="text_11">
      <!-- 50 -->
      <g transform="translate(35.33 142.724854)scale(0.12 -0.12)">
       <defs>
        <path id="DejaVuSans-35" d="M 691 4666 
L 3169 4666 
L 3169 4134 
L 1269 4134 
L 1269 2991 
Q 1406 3038 1543 3061 
Q 1681 3084 1819 3084 
Q 2600 3084 3056 2656 
Q 3513 2228 3513 1497 
Q 3513 744 3044 326 
Q 2575 -91 1722 -91 
Q 1428 -91 1123 -41 
Q 819 9 494 109 
L 494 744 
Q 775 591 1075 516 
Q 1375 441 1709 441 
Q 2250 441 2565 725 
Q 2881 1009 2881 1497 
Q 2881 1984 2565 2268 
Q 2250 2553 1709 2553 
Q 1456 2553 1204 2497 
Q 953 2441 691 2322 
L 691 4666 
z
" transform="scale(0.015625)"/>
       </defs>
       <use xlink:href="#DejaVuSans-35"/>
       <use xlink:href="#DejaVuSans-30" x="63.623047"/>
      </g>
     </g>
    </g>
    <g id="ytick_5">
     <g id="line2d_21">
      <path d="M 57.6 88.693399 
L 414.72 88.693399 
" clip-path="url(#p4bcdc008c2)" style="fill: none; stroke: #b0b0b0; stroke-width: 0.8; stroke-linecap: square"/>
     </g>
     <g id="line2d_22">
      <g>
       <use xlink:href="#mbdc00d35d2" x="57.6" y="88.693399" style="stroke: #000000; stroke-width: 0.8"/>
      </g>
     </g>
     <g id="text_12">
      <!-- 60 -->
      <g transform="translate(35.33 93.252461)scale(0.12 -0.12)">
       <use xlink:href="#DejaVuSans-36"/>
       <use xlink:href="#DejaVuSans-30" x="63.623047"/>
      </g>
     </g>
    </g>
    <g id="text_13">
     <!-- BMI -->
     <g transform="translate(28.834375 185.591437)rotate(-90)scale(0.12 -0.12)">
      <defs>
       <path id="DejaVuSans-42" d="M 1259 2228 
L 1259 519 
L 2272 519 
Q 2781 519 3026 730 
Q 3272 941 3272 1375 
Q 3272 1813 3026 2020 
Q 2781 2228 2272 2228 
L 1259 2228 
z
M 1259 4147 
L 1259 2741 
L 2194 2741 
Q 2656 2741 2882 2914 
Q 3109 3088 3109 3444 
Q 3109 3797 2882 3972 
Q 2656 4147 2194 4147 
L 1259 4147 
z
M 628 4666 
L 2241 4666 
Q 2963 4666 3353 4366 
Q 3744 4066 3744 3513 
Q 3744 3084 3544 2831 
Q 3344 2578 2956 2516 
Q 3422 2416 3680 2098 
Q 3938 1781 3938 1306 
Q 3938 681 3513 340 
Q 3088 0 2303 0 
L 628 0 
L 628 4666 
z
" transform="scale(0.015625)"/>
       <path id="DejaVuSans-4d" d="M 628 4666 
L 1569 4666 
L 2759 1491 
L 3956 4666 
L 4897 4666 
L 4897 0 
L 4281 0 
L 4281 4097 
L 3078 897 
L 2444 897 
L 1241 4097 
L 1241 0 
L 628 0 
L 628 4666 
z
" transform="scale(0.015625)"/>
       <path id="DejaVuSans-49" d="M 628 4666 
L 1259 4666 
L 1259 0 
L 628 0 
L 628 4666 
z
" transform="scale(0.015625)"/>
      </defs>
      <use xlink:href="#DejaVuSans-42"/>
      <use xlink:href="#DejaVuSans-4d" x="68.603516"/>
      <use xlink:href="#DejaVuSans-49" x="154.882812"/>
     </g>
    </g>
   </g>
   <g id="line2d_23">
    <defs>
     <path id="m1de372ca96" d="M 0 3 
C 0.795609 3 1.55874 2.683901 2.12132 2.12132 
C 2.683901 1.55874 3 0.795609 3 0 
C 3 -0.795609 2.683901 -1.55874 2.12132 -2.12132 
C 1.55874 -2.683901 0.795609 -3 0 -3 
C -0.795609 -3 -1.55874 -2.683901 -2.12132 -2.12132 
C -2.683901 -1.55874 -3 -0.795609 -3 0 
C -3 0.795609 -2.683901 1.55874 -2.12132 2.12132 
C -1.55874 2.683901 -0.795609 3 0 3 
z
" style="stroke: #000000"/>
    </defs>
    <g clip-path="url(#p4bcdc008c2)">
     <use xlink:href="#m1de372ca96" x="73.832727" y="295.488" style="stroke: #000000"/>
     <use xlink:href="#m1de372ca96" x="77.079273" y="289.056589" style="stroke: #000000"/>
     <use xlink:href="#m1de372ca96" x="80.325818" y="284.604074" style="stroke: #000000"/>
     <use xlink:href="#m1de372ca96" x="83.572364" y="281.141006" style="stroke: #000000"/>
     <use xlink:href="#m1de372ca96" x="86.818909" y="277.677939" style="stroke: #000000"/>
     <use xlink:href="#m1de372ca96" x="90.065455" y="275.699043" style="stroke: #000000"/>
     <use xlink:href="#m1de372ca96" x="93.312" y="273.720147" style="stroke: #000000"/>
     <use xlink:href="#m1de372ca96" x="96.558545" y="271.246528" style="stroke: #000000"/>
     <use xlink:href="#m1de372ca96" x="99.805091" y="270.019612" style="stroke: #000000"/>
     <use xlink:href="#m1de372ca96" x="103.051636" y="268.278184" style="stroke: #000000"/>
     <use xlink:href="#m1de372ca96" x="106.298182" y="266.794012" style="stroke: #000000"/>
     <use xlink:href="#m1de372ca96" x="109.544727" y="265.804564" style="stroke: #000000"/>
     <use xlink:href="#m1de372ca96" x="112.791273" y="264.815117" style="stroke: #000000"/>
     <use xlink:href="#m1de372ca96" x="116.037818" y="263.330945" style="stroke: #000000"/>
     <use xlink:href="#m1de372ca96" x="119.284364" y="261.925929" style="stroke: #000000"/>
     <use xlink:href="#m1de372ca96" x="122.530909" y="261.352049" style="stroke: #000000"/>
     <use xlink:href="#m1de372ca96" x="125.777455" y="260.38239" style="stroke: #000000"/>
     <use xlink:href="#m1de372ca96" x="129.024" y="259.115897" style="stroke: #000000"/>
     <use xlink:href="#m1de372ca96" x="132.270545" y="257.849404" style="stroke: #000000"/>
     <use xlink:href="#m1de372ca96" x="135.517091" y="257.077634" style="stroke: #000000"/>
     <use xlink:href="#m1de372ca96" x="138.763636" y="255.910086" style="stroke: #000000"/>
     <use xlink:href="#m1de372ca96" x="142.010182" y="254.544648" style="stroke: #000000"/>
     <use xlink:href="#m1de372ca96" x="145.256727" y="253.278155" style="stroke: #000000"/>
     <use xlink:href="#m1de372ca96" x="148.503273" y="251.516937" style="stroke: #000000"/>
     <use xlink:href="#m1de372ca96" x="151.749818" y="250.468123" style="stroke: #000000"/>
     <use xlink:href="#m1de372ca96" x="154.996364" y="249.478675" style="stroke: #000000"/>
     <use xlink:href="#m1de372ca96" x="158.242909" y="248.983951" style="stroke: #000000"/>
     <use xlink:href="#m1de372ca96" x="161.489455" y="247.994503" style="stroke: #000000"/>
     <use xlink:href="#m1de372ca96" x="164.736" y="247.499779" style="stroke: #000000"/>
     <use xlink:href="#m1de372ca96" x="167.982545" y="246.015607" style="stroke: #000000"/>
     <use xlink:href="#m1de372ca96" x="171.229091" y="245.02616" style="stroke: #000000"/>
     <use xlink:href="#m1de372ca96" x="174.475636" y="243.541988" style="stroke: #000000"/>
     <use xlink:href="#m1de372ca96" x="177.722182" y="243.047264" style="stroke: #000000"/>
     <use xlink:href="#m1de372ca96" x="180.968727" y="242.057816" style="stroke: #000000"/>
     <use xlink:href="#m1de372ca96" x="184.215273" y="240.573644" style="stroke: #000000"/>
     <use xlink:href="#m1de372ca96" x="187.461818" y="239.287362" style="stroke: #000000"/>
     <use xlink:href="#m1de372ca96" x="190.708364" y="238.594748" style="stroke: #000000"/>
     <use xlink:href="#m1de372ca96" x="193.954909" y="237.743823" style="stroke: #000000"/>
     <use xlink:href="#m1de372ca96" x="197.201455" y="237.110577" style="stroke: #000000"/>
     <use xlink:href="#m1de372ca96" x="200.448" y="236.615853" style="stroke: #000000"/>
     <use xlink:href="#m1de372ca96" x="203.694545" y="235.428515" style="stroke: #000000"/>
     <use xlink:href="#m1de372ca96" x="206.941091" y="234.656746" style="stroke: #000000"/>
     <use xlink:href="#m1de372ca96" x="210.187636" y="233.390253" style="stroke: #000000"/>
     <use xlink:href="#m1de372ca96" x="213.434182" y="233.152785" style="stroke: #000000"/>
     <use xlink:href="#m1de372ca96" x="216.680727" y="232.163337" style="stroke: #000000"/>
     <use xlink:href="#m1de372ca96" x="219.927273" y="231.17389" style="stroke: #000000"/>
     <use xlink:href="#m1de372ca96" x="223.173818" y="229.551195" style="stroke: #000000"/>
     <use xlink:href="#m1de372ca96" x="226.420364" y="229.194994" style="stroke: #000000"/>
     <use xlink:href="#m1de372ca96" x="229.666909" y="227.216098" style="stroke: #000000"/>
     <use xlink:href="#m1de372ca96" x="232.913455" y="227.216098" style="stroke: #000000"/>
     <use xlink:href="#m1de372ca96" x="236.16" y="225.731926" style="stroke: #000000"/>
     <use xlink:href="#m1de372ca96" x="239.406545" y="225.237202" style="stroke: #000000"/>
     <use xlink:href="#m1de372ca96" x="242.653091" y="224.742479" style="stroke: #000000"/>
     <use xlink:href="#m1de372ca96" x="245.899636" y="223.258307" style="stroke: #000000"/>
     <use xlink:href="#m1de372ca96" x="249.146182" y="223.139573" style="stroke: #000000"/>
     <use xlink:href="#m1de372ca96" x="252.392727" y="222.763583" style="stroke: #000000"/>
     <use xlink:href="#m1de372ca96" x="255.639273" y="221.279411" style="stroke: #000000"/>
     <use xlink:href="#m1de372ca96" x="258.885818" y="220.784687" style="stroke: #000000"/>
     <use xlink:href="#m1de372ca96" x="262.132364" y="219.557772" style="stroke: #000000"/>
     <use xlink:href="#m1de372ca96" x="265.378909" y="219.280726" style="stroke: #000000"/>
     <use xlink:href="#m1de372ca96" x="268.625455" y="218.311067" style="stroke: #000000"/>
     <use xlink:href="#m1de372ca96" x="271.872" y="217.32162" style="stroke: #000000"/>
     <use xlink:href="#m1de372ca96" x="275.118545" y="216.470694" style="stroke: #000000"/>
     <use xlink:href="#m1de372ca96" x="278.365091" y="216.193649" style="stroke: #000000"/>
     <use xlink:href="#m1de372ca96" x="281.611636" y="215.342724" style="stroke: #000000"/>
     <use xlink:href="#m1de372ca96" x="284.858182" y="214.65011" style="stroke: #000000"/>
     <use xlink:href="#m1de372ca96" x="288.104727" y="213.858552" style="stroke: #000000"/>
     <use xlink:href="#m1de372ca96" x="291.351273" y="212.869104" style="stroke: #000000"/>
     <use xlink:href="#m1de372ca96" x="294.597818" y="211.879656" style="stroke: #000000"/>
     <use xlink:href="#m1de372ca96" x="297.844364" y="210.573585" style="stroke: #000000"/>
     <use xlink:href="#m1de372ca96" x="301.090909" y="209.900761" style="stroke: #000000"/>
     <use xlink:href="#m1de372ca96" x="304.337455" y="208.911313" style="stroke: #000000"/>
     <use xlink:href="#m1de372ca96" x="307.584" y="207.921865" style="stroke: #000000"/>
     <use xlink:href="#m1de372ca96" x="310.830545" y="206.932417" style="stroke: #000000"/>
     <use xlink:href="#m1de372ca96" x="314.077091" y="205.230567" style="stroke: #000000"/>
     <use xlink:href="#m1de372ca96" x="317.323636" y="204.458798" style="stroke: #000000"/>
     <use xlink:href="#m1de372ca96" x="320.570182" y="203.46935" style="stroke: #000000"/>
     <use xlink:href="#m1de372ca96" x="323.816727" y="201.490454" style="stroke: #000000"/>
     <use xlink:href="#m1de372ca96" x="327.063273" y="200.164594" style="stroke: #000000"/>
     <use xlink:href="#m1de372ca96" x="330.309818" y="199.016834" style="stroke: #000000"/>
     <use xlink:href="#m1de372ca96" x="333.556364" y="198.126331" style="stroke: #000000"/>
     <use xlink:href="#m1de372ca96" x="336.802909" y="196.543215" style="stroke: #000000"/>
     <use xlink:href="#m1de372ca96" x="340.049455" y="195.059043" style="stroke: #000000"/>
     <use xlink:href="#m1de372ca96" x="343.296" y="194.069595" style="stroke: #000000"/>
     <use xlink:href="#m1de372ca96" x="346.542545" y="192.090699" style="stroke: #000000"/>
     <use xlink:href="#m1de372ca96" x="349.789091" y="190.606528" style="stroke: #000000"/>
     <use xlink:href="#m1de372ca96" x="353.035636" y="190.111804" style="stroke: #000000"/>
     <use xlink:href="#m1de372ca96" x="356.282182" y="188.132908" style="stroke: #000000"/>
     <use xlink:href="#m1de372ca96" x="359.528727" y="185.026042" style="stroke: #000000"/>
     <use xlink:href="#m1de372ca96" x="362.775273" y="183.185669" style="stroke: #000000"/>
     <use xlink:href="#m1de372ca96" x="366.021818" y="179.623656" style="stroke: #000000"/>
     <use xlink:href="#m1de372ca96" x="369.268364" y="176.259534" style="stroke: #000000"/>
     <use xlink:href="#m1de372ca96" x="372.514909" y="173.528658" style="stroke: #000000"/>
     <use xlink:href="#m1de372ca96" x="375.761455" y="171.312294" style="stroke: #000000"/>
     <use xlink:href="#m1de372ca96" x="379.008" y="170.006223" style="stroke: #000000"/>
     <use xlink:href="#m1de372ca96" x="382.254545" y="165.375607" style="stroke: #000000"/>
     <use xlink:href="#m1de372ca96" x="385.501091" y="161.041826" style="stroke: #000000"/>
     <use xlink:href="#m1de372ca96" x="388.747636" y="157.301713" style="stroke: #000000"/>
     <use xlink:href="#m1de372ca96" x="391.994182" y="149.208029" style="stroke: #000000"/>
     <use xlink:href="#m1de372ca96" x="395.240727" y="133.159185" style="stroke: #000000"/>
     <use xlink:href="#m1de372ca96" x="398.487273" y="53.568" style="stroke: #000000"/>
    </g>
   </g>
   <g id="patch_3">
    <path d="M 57.6 307.584 
L 57.6 41.472 
" style="fill: none; stroke: #000000; stroke-width: 0.8; stroke-linejoin: miter; stroke-linecap: square"/>
   </g>
   <g id="patch_4">
    <path d="M 414.72 307.584 
L 414.72 41.472 
" style="fill: none; stroke: #000000; stroke-width: 0.8; stroke-linejoin: miter; stroke-linecap: square"/>
   </g>
   <g id="patch_5">
    <path d="M 57.6 307.584 
L 414.72 307.584 
" style="fill: none; stroke: #000000; stroke-width: 0.8; stroke-linejoin: miter; stroke-linecap: square"/>
   </g>
   <g id="patch_6">
    <path d="M 57.6 41.472 
L 414.72 41.472 
" style="fill: none; stroke: #000000; stroke-width: 0.8; stroke-linejoin: miter; stroke-linecap: square"/>
   </g>
  </g>
 </g>
 <defs>
  <clipPath id="p4bcdc008c2">
   <rect x="57.6" y="41.472" width="357.12" height="266.112"/>
  </clipPath>
 </defs>
</svg>
